<svg width="87" height="87" viewBox="0 0 87 87" fill="none" xmlns="http://www.w3.org/2000/svg">
<path d="M43.71 0.759766C19.97 0.759766 0.659973 20.0498 0.659973 43.7598C0.659973 67.4698 19.97 86.7598 43.71 86.7598C67.45 86.7598 86.76 67.4698 86.76 43.7598C86.76 20.0498 67.45 0.759766 43.71 0.759766ZM72.04 21.0498C76.95 27.1398 79.94 34.8202 80.07 43.2002C78.44 42.8602 71.52 41.5698 63.25 41.5698C60.58 41.5698 57.77 41.6998 54.96 42.0498C54.72 41.4698 54.48 40.9001 54.23 40.3101C53.5 38.5901 52.71 36.89 51.9 35.21C64.63 29.97 70.77 22.69 72.04 21.04V21.0498ZM43.71 7.49023C52.88 7.49023 61.27 10.8998 67.67 16.5098C66.66 17.8898 61.16 24.7699 48.89 29.3999C43.21 19.0199 36.99 10.4199 35.51 8.41992C38.15 7.80992 40.89 7.47998 43.71 7.47998V7.49023ZM28.09 11.0098C29.34 12.7398 35.57 21.43 41.4 31.73C25.76 35.84 11.88 36.1099 8.53003 36.1099H8.16998C10.58 25.0099 18.07 15.7898 28.09 11.0098ZM7.34003 43.8101C7.34003 43.5101 7.33998 43.2102 7.34998 42.9102C7.56998 42.9102 7.88999 42.9102 8.29999 42.9102C12.81 42.9102 28.48 42.54 44.63 37.75C45.61 39.67 46.54 41.6101 47.41 43.5601C47 43.6801 46.6 43.7899 46.2 43.9199C28.02 49.7899 18.03 65.3301 16.49 67.8701C10.79 61.4501 7.33002 53.0298 7.33002 43.7998L7.34003 43.8101ZM43.71 80.1299C35.37 80.1299 27.67 77.2998 21.53 72.5698C22.57 70.5298 30.11 56.96 50.03 50.02C50.04 50.02 50.06 50.0198 50.07 50.0098C55.06 63.0098 57.18 73.9301 57.76 77.3101C53.44 79.1301 48.69 80.1299 43.71 80.1299ZM64.31 73.73C63.82 70.93 61.86 60.7 57.34 48.23C59.88 47.84 62.34 47.6802 64.66 47.6802C72.26 47.6802 78.21 49.34 79.59 49.77C77.95 59.68 72.28 68.2502 64.31 73.7402V73.73Z" fill="#03232B"/>
</svg>
