<svg width="82" height="82" viewBox="0 0 82 82" fill="none" xmlns="http://www.w3.org/2000/svg">
<path d="M80.5 51.14C80.16 51.94 78.88 54.8097 75.64 56.3197C72.47 57.7997 69.55 56.9899 68.69 56.7499C65.09 55.7299 62.07 53.0399 61.96 48.4999C61.92 46.8099 60.28 46.4699 59.11 46.4999C57.87 46.5299 56.15 45.3997 55.34 47.5697C54.94 48.6397 54.13 49.5797 53.42 50.5097C52.3 51.9697 49.71 52.9798 50.05 54.7098C50.52 57.1698 52.16 59.4298 53.44 61.6898C54.27 63.1598 55.85 62.57 57.13 62.6C62.03 62.69 65.46 65.0199 66.05 68.7299C66.95 74.4199 64.91 78.8101 60.48 80.7401C56.56 82.4501 51.45 80.8801 49.02 77.2201C46.52 73.4401 46.62 69.7097 48.95 65.8197C49.49 64.9197 51.22 64.4297 50.41 62.8597C49.2799 60.6698 48.2 58.4497 46.93 56.3397C46.67 55.8997 45.75 56.2 45.08 56.41C40.07 57.94 35.33 57.0299 31.21 53.9999C30.09 53.1799 29.18 52.8201 28.32 52.9301C27.25 53.0701 26.55 53.8397 26.06 54.3597C22.32 58.3197 20.85 57.5499 19.69 60.0599C19.32 60.8699 18.3 60.6801 18.88 65.7001C19.51 71.1701 15.4 74.7797 9.79997 74.7797C4.46997 74.7797 0.719986 70.9398 0.319986 65.8798C-0.390014 56.7398 7.78 54.5599 14.34 56.8099C16.07 57.3999 17.24 57.7298 18.75 56.1298C20.34 54.4498 22.53 53.3498 24.4 51.9198C25.97 50.7098 26.91 49.3898 25.91 47.1498C23.73 42.2698 23.99 37.3499 26.68 32.7299C27.61 31.1399 27.74 30.1697 26.24 28.8197C23.33 26.1997 20.63 23.3497 17.9 20.5497C16.5 19.1097 15.33 18.7297 13.07 19.3197C9.18999 20.3197 5.85998 19.58 3.55998 17.66C0.819976 15.38 -0.890034 10.85 0.549966 6.84998C2.23997 2.13998 7.78997 -0.779959 13.43 0.660041C18.28 2.16004 20.69 4.67977 19.89 9.87977C18.59 18.3198 25.41 21.0898 29.71 25.6498C30.74 26.7498 32.26 26.0599 33.52 25.4799C35.76 24.4499 38.14 23.99 40.58 23.85C44.87 23.6 46.34 20.89 43.9 17.14C42.28 14.66 41.36 12.1601 41.52 9.18006C41.66 6.54006 42.79 4.46975 43.4 3.60975C46.56 -0.830252 56.84 -1.26996 60.58 3.66004C62.08 5.64004 62.17 7.99002 62.21 9.39002C62.34 14.67 59.83 18.6899 55.42 20.2299C54.65 20.4999 53.85 20.6301 53.05 20.7401C51.19 20.9901 50.26 22.1797 49.71 23.8397C49.13 25.5997 50.05 26.64 51.31 27.6C55.08 30.47 57.18 34.2199 57.38 38.9999C57.43 40.2399 57.65 41.4599 59.01 41.9999C60.65 42.6399 61.93 41.9699 62.95 40.7499C65.58 37.6299 69.04 37.0399 72.85 37.3099C74.56 37.4299 76.34 37.6998 77.99 38.9398C81.43 41.5198 82.24 47.0898 80.5 51.1698V51.14Z" fill="#03232B"/>
</svg>
