<svg width="94" height="323" viewBox="0 0 94 323" fill="none" xmlns="http://www.w3.org/2000/svg">
<g filter="url(#filter0_d_1_83)">
<path d="M40.12 75.28C59.45 75.28 75.12 59.61 75.12 40.28C75.12 20.9501 59.45 5.28003 40.12 5.28003C20.79 5.28003 5.12 20.9501 5.12 40.28C5.12 59.61 20.79 75.28 40.12 75.28Z" stroke="#66FCF1" stroke-width="3" stroke-miterlimit="10"/>
<path d="M26.1 32.08H32.12V51.41H26.1V32.08ZM29.11 22.47C31.03 22.47 32.59 24.03 32.59 25.95C32.59 27.87 31.03 29.44 29.11 29.44C27.19 29.44 25.62 27.88 25.62 25.95C25.62 24.02 27.18 22.47 29.11 22.47Z" fill="#66FCF1"/>
<path d="M35.88 32.0801H41.64V34.7201H41.72C42.52 33.2001 44.48 31.6001 47.41 31.6001C53.49 31.6001 54.61 35.6001 54.61 40.8101V51.4101H48.61V42.0101C48.61 39.7701 48.57 36.8801 45.49 36.8801C42.41 36.8801 41.89 39.3201 41.89 41.8401V51.4001H35.88V32.0701V32.0801Z" fill="#66FCF1"/>
<path d="M40.12 304.28C59.45 304.28 75.12 288.61 75.12 269.28C75.12 249.95 59.45 234.28 40.12 234.28C20.79 234.28 5.12 249.95 5.12 269.28C5.12 288.61 20.79 304.28 40.12 304.28Z" stroke="#66FCF1" stroke-width="3" stroke-miterlimit="10"/>
<path d="M49.76 257.57C48.58 257.57 47.62 258.53 47.62 259.71C47.62 260.89 48.58 261.85 49.76 261.85C50.94 261.85 51.9 260.89 51.9 259.71C51.9 258.53 50.94 257.57 49.76 257.57Z" fill="#66FCF1"/>
<path d="M40.27 260.31C35.32 260.31 31.3 264.33 31.3 269.28C31.3 274.23 35.32 278.25 40.27 278.25C45.22 278.25 49.24 274.23 49.24 269.28C49.24 264.33 45.22 260.31 40.27 260.31ZM40.27 275.03C37.1 275.03 34.52 272.45 34.52 269.28C34.52 266.11 37.1 263.53 40.27 263.53C43.44 263.53 46.02 266.11 46.02 269.28C46.02 272.45 43.44 275.03 40.27 275.03Z" fill="#66FCF1"/>
<path d="M47.39 287.49H32.85C26.82 287.49 21.91 282.58 21.91 276.55V262.01C21.91 255.98 26.82 251.07 32.85 251.07H47.39C53.42 251.07 58.33 255.98 58.33 262.01V276.55C58.33 282.58 53.42 287.49 47.39 287.49ZM32.85 254.49C28.71 254.49 25.34 257.86 25.34 262V276.54C25.34 280.68 28.71 284.05 32.85 284.05H47.39C51.53 284.05 54.91 280.68 54.91 276.54V262C54.91 257.86 51.54 254.49 47.39 254.49H32.85Z" fill="#66FCF1"/>
<path d="M40.12 189.78C59.45 189.78 75.12 174.11 75.12 154.78C75.12 135.45 59.45 119.78 40.12 119.78C20.79 119.78 5.12 135.45 5.12 154.78C5.12 174.11 20.79 189.78 40.12 189.78Z" stroke="#66FCF1" stroke-width="3" stroke-miterlimit="10"/>
<path d="M43.09 152.32L54.7 138.83H51.95L41.87 150.55L33.8199 138.83H24.53L36.7 156.55L24.53 170.7H27.28L37.92 158.33L46.42 170.7H55.71L43.08 152.33L43.09 152.32ZM39.3199 156.7L38.09 154.94L28.28 140.9H32.51L40.4301 152.23L41.66 153.99L51.96 168.72H47.73L39.33 156.7H39.3199Z" fill="#66FCF1"/>
</g>
<defs>
<filter id="filter0_d_1_83" x="0.619995" y="0.780029" width="93" height="322" filterUnits="userSpaceOnUse" color-interpolation-filters="sRGB">
<feFlood flood-opacity="0" result="BackgroundImageFix"/>
<feColorMatrix in="SourceAlpha" type="matrix" values="0 0 0 0 0 0 0 0 0 0 0 0 0 0 0 0 0 0 127 0" result="hardAlpha"/>
<feOffset dx="7" dy="7"/>
<feGaussianBlur stdDeviation="5"/>
<feColorMatrix type="matrix" values="0 0 0 0 0 0 0 0 0 0 0 0 0 0 0 0 0 0 0.5 0"/>
<feBlend mode="normal" in2="BackgroundImageFix" result="effect1_dropShadow_1_83"/>
<feBlend mode="normal" in="SourceGraphic" in2="effect1_dropShadow_1_83" result="shape"/>
</filter>
</defs>
</svg>
