<svg width="60" height="84" viewBox="0 0 60 84" fill="none" xmlns="http://www.w3.org/2000/svg">
<path d="M12.0799 30.1899C20.2599 25.1999 28.18 23.2301 36.89 25.3701C49.4 28.4401 58.8099 39.4702 59.5899 52.2202C60.3899 65.1602 52.7399 77.1999 40.7199 81.8998C28.6499 86.6199 14.7999 82.93 6.73994 72.85C-1.47006 62.58 -1.95001 48.7299 5.03999 37.7299C6.74999 35.0399 7.40992 31.53 7.96992 28.29C8.62992 24.42 8.13001 20.3198 9.06001 16.5498C11.27 7.63976 19.3799 1.30995 28.4499 0.74995C37.8499 0.16995 46.48 5.57975 50.03 14.2998C50.28 14.9098 50.71 15.5499 50.67 16.1499C50.58 17.6099 50.27 19.06 50.04 20.52C49.01 19.54 47.44 18.73 47.04 17.54C45.3 12.4 42.1799 8.62007 37.2399 6.37007C25.9699 1.24007 13.1199 8.69997 12.1099 21.02C11.8799 23.8 12.0799 26.6099 12.0799 30.2099V30.1899ZM30.1199 47.31C28.0099 48.9 25.6399 49.8101 25 51.4101C24.27 53.2001 24.8099 55.6997 25.3399 57.7597C25.8599 59.7897 26.9699 61.7 27.9799 63.58C28.4499 64.47 29.2699 65.1601 29.9399 65.9501C30.5799 65.1401 31.3599 64.4097 31.8399 63.5097C32.8399 61.6297 33.93 59.7299 34.51 57.7099C35.05 55.7999 35.66 53.45 35 51.79C34.34 50.13 32.14 49.07 30.14 47.33L30.1199 47.31Z" fill="#03232B"/>
</svg>
