<svg width="94" height="94" viewBox="0 0 94 94" fill="none" xmlns="http://www.w3.org/2000/svg">
<g filter="url(#filter0_d_1_129)">
<path d="M40.17 75.0498C59.4945 75.0498 75.16 59.3845 75.16 40.0601C75.16 20.7356 59.4945 5.06982 40.17 5.06982C20.8456 5.06982 5.18005 20.7356 5.18005 40.0601C5.18005 59.3845 20.8456 75.0498 40.17 75.0498Z" stroke="#66FCF1" stroke-width="3" stroke-miterlimit="10"/>
<path fill-rule="evenodd" clip-rule="evenodd" d="M56.34 46.2996C54.57 45.2396 52.2601 44.0499 50.1701 44.9099C48.5701 45.5699 47.54 48.0796 46.5 49.3596C45.97 50.0196 45.3301 50.1198 44.5101 49.7898C38.4901 47.3898 33.8801 43.3796 30.5601 37.8396C30.0001 36.9796 30.1001 36.2998 30.7801 35.4998C31.7801 34.3198 33.0401 32.9799 33.3101 31.3899C33.5801 29.7999 32.8301 27.9398 32.1801 26.5198C31.3401 24.7098 30.4 22.1299 28.58 21.0999C26.91 20.1599 24.71 20.6897 23.23 21.8997C20.67 23.9897 19.43 27.2598 19.46 30.4998C19.47 31.4198 19.5801 32.3398 19.8001 33.2298C20.3201 35.3698 21.3101 37.3698 22.4201 39.2698C23.2601 40.6998 24.1701 42.09 25.1501 43.43C28.3701 47.8 32.3701 51.5997 37.0101 54.4397C39.3301 55.8597 41.8201 57.0997 44.4101 57.9597C47.3101 58.9197 49.8901 59.9096 53.0201 59.3196C56.3001 58.6996 59.53 56.6695 60.83 53.5095C61.21 52.5795 61.41 51.5296 61.19 50.5496C60.74 48.5096 57.98 47.2898 56.33 46.3098L56.34 46.2996Z" fill="#66FCF1"/>
</g>
<defs>
<filter id="filter0_d_1_129" x="0.680054" y="0.569824" width="92.98" height="92.98" filterUnits="userSpaceOnUse" color-interpolation-filters="sRGB">
<feFlood flood-opacity="0" result="BackgroundImageFix"/>
<feColorMatrix in="SourceAlpha" type="matrix" values="0 0 0 0 0 0 0 0 0 0 0 0 0 0 0 0 0 0 127 0" result="hardAlpha"/>
<feOffset dx="7" dy="7"/>
<feGaussianBlur stdDeviation="5"/>
<feColorMatrix type="matrix" values="0 0 0 0 0 0 0 0 0 0 0 0 0 0 0 0 0 0 0.5 0"/>
<feBlend mode="normal" in2="BackgroundImageFix" result="effect1_dropShadow_1_129"/>
<feBlend mode="normal" in="SourceGraphic" in2="effect1_dropShadow_1_129" result="shape"/>
</filter>
</defs>
</svg>
