<svg width="80" height="83" viewBox="0 0 80 83" fill="none" xmlns="http://www.w3.org/2000/svg">
<path d="M13.3001 82.66C13.3001 80.74 13.2301 79.1497 13.3101 77.5697C13.7301 69.2797 11.35 61.8598 6.86001 54.8998C-0.439995 43.5998 -0.749975 31.5801 4.38002 19.4501C9.52003 7.28005 19.64 1.90984 32.25 0.979839C36.98 0.629839 41.9101 0.980015 46.5601 1.91001C58.2901 4.29001 66.2701 11.4797 69.0601 23.0897C70.8401 30.4697 74.0001 36.9397 77.8101 43.2997C80.6401 48.0197 80.53 49.43 75.46 51.18C69.42 53.27 71.11 57.7997 71.02 61.8397C70.82 70.8997 65.32 76.2199 56.36 75.7899C55.06 75.7299 53.75 75.6497 52.02 75.5497C51.87 77.8797 51.73 80.12 51.57 82.66H13.2901H13.3001ZM36.34 13.6297C36.27 15.1697 35.8 16.4899 36.25 17.3099C37.51 19.6399 37.22 20.9999 34.57 21.7899C33.82 22.0199 33.2201 22.7797 32.5501 23.2997C33.2301 23.9497 33.8 24.9301 34.6 25.2001C37.2 26.0801 37.53 27.3901 36.22 29.7201C35.77 30.5201 36.28 31.8598 36.4 33.6898C39.95 31.0798 42.5301 29.48 43.1601 34.68C43.2101 35.1 44.49 35.72 45.09 35.62C45.64 35.53 46.36 34.6299 46.46 33.9999C46.91 31.1799 48.36 30.88 50.73 31.85C51.54 32.19 52.59 31.9599 53.52 31.9999C53.42 31.1599 53.54 30.2296 53.19 29.5096C52.03 27.1496 52.4501 25.8298 55.1801 25.1498C56.0701 24.9298 56.69 23.64 57.82 22.41C53.94 21.42 50.36 21.0699 53.76 16.7699C54.03 16.4299 53.61 15.1001 53.13 14.7401C52.68 14.4101 51.56 14.5 51.02 14.85C48.49 16.48 47.03 16.0498 46.46 12.9598C46.34 12.3298 45.6101 11.46 45.0601 11.37C44.4601 11.28 43.2101 11.9197 43.1601 12.3397C42.5501 17.6797 39.8 15.54 36.34 13.62V13.6297ZM10.76 38.5697C14.62 39.5697 18.2001 39.9301 14.8001 44.2201C14.5301 44.5601 14.9501 45.8901 15.4301 46.2401C15.8801 46.5701 16.9901 46.47 17.5401 46.12C20.0701 44.5 21.53 44.9199 22.1 48.0199C22.21 48.6399 22.95 49.52 23.5 49.6C24.1 49.69 25.35 49.05 25.4 48.62C26.01 43.25 28.77 45.4497 32.22 47.3397C32.3 45.8197 32.77 44.4898 32.32 43.6698C31.05 41.3398 31.34 39.9798 34 39.1898C34.75 38.9698 35.35 38.2 36.01 37.68C35.33 37.03 34.75 36.0097 33.95 35.7997C31.45 35.1097 31.2 33.79 32.07 31.6C32.48 30.58 32.32 29.3297 32.48 27.3597C27.12 30.7297 26.15 30.3297 24.89 24.5697C23.71 25.5697 22.33 26.1596 22.15 27.0096C21.55 29.7896 20.19 30.1097 17.83 29.1297C17.02 28.7897 15.9701 29.0199 15.0401 28.9999C15.1401 29.8399 15.04 30.7701 15.39 31.4901C16.54 33.8501 16.12 35.1797 13.39 35.8397C12.51 36.0597 11.89 37.3599 10.78 38.5799L10.76 38.5697Z" fill="#03232B"/>
<path d="M50.06 23.2899C49.6 26.6799 47.92 28.73 44.65 28.64C41.42 28.54 39.51 26.5099 39.63 23.2699C39.74 20.2599 41.65 18.4 44.68 18.35C47.97 18.3 49.55 20.4099 50.06 23.2899Z" fill="#03232B"/>
</svg>
