<svg width="71" height="57" viewBox="0 0 71 57" fill="none" xmlns="http://www.w3.org/2000/svg">
<path d="M70.12 21.7001C67.13 16.7101 64.14 11.7201 61.15 6.72006C57.46 11.7501 53.78 16.7801 50.09 21.8201C51.57 21.8201 53.05 21.8001 54.53 21.7901C54.63 22.3001 54.71 22.8601 54.77 23.4601C54.77 23.5401 54.79 23.6301 54.79 23.7101C54.8 23.8201 54.81 23.9301 54.82 24.0501C54.82 24.0701 54.82 24.1001 54.82 24.1201C54.82 24.2101 54.83 24.3101 54.84 24.4001C54.84 24.4201 54.84 24.4501 54.84 24.4701C54.84 24.5701 54.84 24.6701 54.85 24.7601C54.89 25.8401 54.85 27.0101 54.67 28.2601C53.6 35.6501 47.96 43.8601 40.28 45.1801C36.47 45.8301 32.16 44.7601 28.49 42.7701C31.46 42.3401 34.47 41.4501 37.2 39.9501C42.79 36.8801 47.6 31.0101 48.43 23.6701C49.22 16.6801 46.21 9.97006 41.59 5.89006C27.48 -5.46994 6.09997 2.24006 0.109966 9.14006C0.0199665 9.25006 0.919968 10.5801 2.07997 12.1901C3.47997 14.1401 4.85997 16.1201 6.38997 17.9801C6.55997 18.1801 6.63997 18.2701 6.71997 18.3901C6.86997 18.6101 6.93996 18.7701 6.95996 18.7901C7.09996 19.0101 14.24 14.5501 20.21 13.6001C21.95 13.3201 28.86 12.5101 33.04 16.8501C35.67 19.5801 37.09 24.2301 35.18 27.8001C33.81 30.3601 31.25 31.4101 29.19 32.2601C24.86 34.0501 20.59 34.0501 17.42 33.6301L20.37 22.6301H9.35997L0.509968 55.5701H11.52L14.37 44.9801C16.54 47.6001 18.9 49.6301 21.07 51.1701C23.51 52.9401 25.28 53.7601 25.28 53.7601C28.16 55.0201 34.56 57.3301 42.47 56.0001C42.58 55.9801 42.69 55.9601 42.81 55.9401C46.09 55.4401 49.49 54.3101 52.71 52.1801C57.8 48.9101 61.4 43.8301 63.56 38.2401C63.61 38.1101 63.66 37.9801 63.71 37.8501C63.71 37.8501 63.74 37.7701 63.79 37.6301C64.25 36.4401 64.61 35.3301 64.89 34.2101C65.01 33.7501 65.24 32.8201 65.45 31.5101C65.61 30.6901 65.75 29.8401 65.84 28.9901C66.06 27.0101 66.38 24.2301 66.24 21.7201C67.53 21.7201 68.81 21.7001 70.1 21.7001H70.12Z" fill="#66FCF1"/>
</svg>
